/* XPM */
static char *fa2033159cbc43ddd221ee922541692ccrAdRHUaWhjdy0dT[] = {
/* columns rows colors chars-per-pixel */
"50 50 243 2 ",
"   c None",
".  c #6EA172",
"X  c #6EA173",
"o  c #6CA272",
"O  c #6DA272",
"+  c #6DA372",
"@  c #6DA273",
"#  c #6DA373",
"$  c #6EA272",
"%  c #6EA372",
"&  c #6EA273",
"*  c #6EA373",
"=  c #6FA373",
"-  c #6DA274",
";  c #6EA374",
":  c #6FA374",
">  c #70A372",
",  c #71A372",
"<  c #70A472",
"1  c #71A472",
"2  c #70A473",
"3  c #72A472",
"4  c #77A671",
"5  c #74A472",
"6  c #75A572",
"7  c #76A572",
"8  c #78A671",
"9  c #79A771",
"0  c #7AA771",
"q  c #78A573",
"w  c #7CA870",
"e  c #7EA870",
"r  c #8C9F75",
"t  c #86AC6F",
"y  c #89AD6E",
"u  c #88AC6F",
"i  c #8AAD6F",
"p  c #8CAE6E",
"a  c #8DAE6E",
"s  c #8EAE6E",
"d  c #8EAF6E",
"f  c #90AF6E",
"g  c #91AF6E",
"h  c #93B16D",
"j  c #91B06E",
"k  c #94B16D",
"l  c #95B16F",
"z  c #9CB46B",
"x  c #9DB46B",
"c  c #9EB56B",
"v  c #9FB56B",
"b  c #98B36C",
"n  c #99B36C",
"m  c #98B26D",
"M  c #9AB36C",
"N  c #9DB36C",
"B  c #9DB36E",
"V  c #86A970",
"C  c #8FAD70",
"Z  c #9AB37A",
"A  c #A0B56B",
"S  c #A1B66B",
"D  c #A2B66A",
"F  c #A2B66B",
"G  c #A2B76B",
"H  c #A4B76A",
"J  c #A5B76A",
"K  c #AFB66B",
"L  c #AFB76B",
"P  c #AEB56C",
"I  c #A4B86A",
"U  c #A6B86A",
"Y  c #A7B86A",
"T  c #A8B869",
"R  c #A8B969",
"E  c #A9B969",
"W  c #ABB968",
"Q  c #AAB869",
"!  c #AAB969",
"~  c #ABB969",
"^  c #AABA69",
"/  c #ABBA69",
"(  c #A8B96A",
")  c #ABBA6A",
"_  c #ACB969",
"`  c #AEB969",
"'  c #ACBA68",
"]  c #ACBA69",
"[  c #ADBA69",
"{  c #ACBB69",
"}  c #ADBB69",
"|  c #AEBA69",
" . c #AFBB69",
".. c #ACB96A",
"X. c #ADB96A",
"o. c #ACBA6A",
"O. c #ACBB6A",
"+. c #ACBB6B",
"@. c #AFBB6B",
"#. c #ABB96D",
"$. c #ADB86D",
"%. c #ACB96D",
"&. c #ACBA6D",
"*. c #ACBA6E",
"=. c #B2B36E",
"-. c #B1B46C",
";. c #B3B96B",
":. c #B3BB6A",
">. c #B5BC6A",
",. c #B6BA6D",
"<. c #B9BC6B",
"1. c #BABA6C",
"2. c #A8A674",
"3. c #BBAE71",
"4. c #B8AD72",
"5. c #BAAC72",
"6. c #BBAC73",
"7. c #B9AE72",
"8. c #A2B370",
"9. c #ACB570",
"0. c #ACB874",
"q. c #ACB779",
"w. c #AFB679",
"e. c #ADB77C",
"r. c #B1B575",
"t. c #B9BA73",
"y. c #B7B87C",
"u. c #CA997C",
"i. c #C1BE6B",
"p. c #C2BE6C",
"a. c #C3BE6C",
"s. c #CABE6F",
"d. c #C0AC75",
"f. c #C5A178",
"g. c #C4A07A",
"h. c #C3BD71",
"j. c #C1BD72",
"k. c #DABF7E",
"l. c #D3C170",
"z. c #DFC279",
"x. c #E5C570",
"c. c #EC7B91",
"v. c #EC7B93",
"b. c #EC7C93",
"n. c #EC7A94",
"m. c #ED7A94",
"M. c #ED7B94",
"N. c #ED7A95",
"B. c #EE7B95",
"V. c #ED7B96",
"C. c #EB7D94",
"Z. c #EE7E97",
"A. c #ED7D98",
"S. c #ED7E9A",
"D. c #EC7F9A",
"F. c #ABB582",
"G. c #AEB389",
"H. c #B1B781",
"J. c #B1B682",
"K. c #BCB78E",
"L. c #BCAD93",
"P. c #AEB492",
"I. c #ADB199",
"U. c #AEAFA6",
"Y. c #AFAEAC",
"T. c #B0B2A1",
"R. c #AEACB2",
"E. c #AEADB4",
"W. c #AEACBB",
"Q. c #BAAFB7",
"!. c #B3AFBF",
"~. c #D38C86",
"^. c #DB8986",
"/. c #DE8A88",
"(. c #DE888A",
"). c #D98E89",
"_. c #CF9684",
"`. c #D59484",
"'. c #E6808F",
"]. c #E78191",
"[. c #EC819A",
"{. c #EC809B",
"}. c #EE809C",
"|. c #ED829D",
" X c #EE819E",
".X c #EE829E",
"XX c #CDB788",
"oX c #D19BA4",
"OX c #D991A9",
"+X c #EE86A3",
"@X c #E38BA5",
"#X c #ED89A8",
"$X c #EE8AAA",
"%X c #EE8DAD",
"&X c #EE8CAE",
"*X c #EE92B0",
"=X c #ED92B3",
"-X c #EF93B5",
";X c #EE95BA",
":X c #CDA9A3",
">X c #C4B6A1",
",X c #AFAACA",
"<X c #B2AAC5",
"1X c #BAA9C0",
"2X c #B3B6CD",
"3X c #AFA8D7",
"4X c #AEA7DC",
"5X c #B1AFDA",
"6X c #B5ACD8",
"7X c #AFA7E1",
"8X c #AEA7E4",
"9X c #B2A7E2",
"0X c #B0A5E6",
"qX c #B0A7E6",
"wX c #B0A8E0",
"eX c #B0A8E4",
"rX c #B0A8E5",
"tX c #B0A9E5",
"yX c #B2A8E5",
"uX c #B1ABE4",
"iX c #B1A8E6",
"pX c #B1A9E6",
"aX c #B2AFE4",
"sX c #B1B0E2",
"dX c #B2B0E2",
"fX c #B3B0E2",
"gX c #B3B1E2",
"hX c #B3B0E3",
"jX c #B3B6E0",
"kX c #B5B8E0",
"lX c #B4B9E0",
"zX c #B6BAE0",
"xX c #ED9BC4",
"cX c #F09EC3",
"vX c #BCCED7",
"bX c #B8C3DB",
"nX c #B8C7DC",
"mX c #B8C4DE",
"MX c #B9C4DF",
"NX c #BBCBDB",
"BX c #B9CADD",
"VX c #BACBDC",
"CX c #BDD6DA",
/* pixels */
"                                                                                                    ",
"                                                                                                    ",
"                                                                                                    ",
"                                                                                                    ",
"                                                                                                    ",
"                                                                                                    ",
"                                                                                                    ",
"                                                                                                    ",
"                                                                                                    ",
"                                                                                                    ",
"                                                                                                    ",
"                                                                                                    ",
"                                                                                                    ",
"                                                                                                    ",
"                                              &X      MX                                            ",
"                                NXCXVX        &X;X  !.2XvX          xX                              ",
"                                  BXkX8X      |.@X:XK.T.      M.M.D.-X                              ",
"                                  sXrXqXsXkX  OXoXXXj.J.  C.C.A.M.V.}.                              ",
"                                  rXqXaXMXNXzX!.L.t.>.r._.b.}.$X}.M.                                ",
"                                    9XaXkXkX6XY.w.O.O.$.g.].A.$X}.M.                                ",
"                                x.k.Q.3XwXwX,XG.O.` O.O.4.^.b.[.[.                                  ",
"                                x.l.y.I.E.W.P.&.O.` O.O.L g.^.(.`.3.1.<.                            ",
"                          rXuX6X>Xj.;.&.q.e.&.) O.;.p.p.;.-.6.6.=.-.;.d.                            ",
"                        8XhXgXrX,XJ.&.{ ) ) ) ) J N P s.i.;.O.O.O.O.4.).*XcX                        ",
"                              rX4XU.0.W W ` ) x f u f F ,.O.L ) ) P u.].+X-X                        ",
"                                  R.F.) ) O.U h p x x f m Q ) ) N 2.~.c.                            ",
"                                    Z l x W U n F Q ) x b U Q z V r                                 ",
"                                    q 0 p U ) ) ) O.W ) ) W F y 6                                   ",
"                                    + > 6 h G U Q J ) ) J x p 9 %                                   ",
"                                    + ; 5 q t y y f f M p e 6 % 5                                   ",
"                                  ; ; + o + , , 5 , 5 q 5 + + + ;                                   ",
"                                  + X ; + 5 5 ; + + > + + + + + + ;                                 ",
"                                  ; + + ,     + ; + X ; + ; ; + ; ; +                               ",
"                                % : ;         + + ; + X +       + ; +                               ",
"                                :               ; + X +           ; +                               ",
"                                                X ; ;                                               ",
"                                                X + +                                               ",
"                                                  X                                                 ",
"                                                                                                    ",
"                                                                                                    ",
"                                                                                                    ",
"                                                                                                    ",
"                                                                                                    ",
"                                                                                                    ",
"                                                                                                    ",
"                                                                                                    ",
"                                                                                                    ",
"                                                                                                    ",
"                                                                                                    ",
"                                                                                                    "
};
