/* XPM */
static char *_6160aafde2f4102a69246bb08cd07a5GjWVPXSTHm6MvNXw[] = {
/* columns rows colors chars-per-pixel */
"50 50 162 2 ",
"   c None",
".  c #260113",
"X  c #270113",
"o  c #250213",
"O  c #260213",
"+  c #270213",
"@  c #260313",
"#  c #250114",
"$  c #260114",
"%  c #270114",
"&  c #260115",
"*  c #250214",
"=  c #260214",
"-  c #270214",
";  c #260314",
":  c #270314",
">  c #260215",
",  c #270215",
"<  c #270414",
"1  c #280114",
"2  c #280214",
"3  c #280414",
"4  c #280415",
"5  c #280515",
"6  c #290515",
"7  c #2A0615",
"8  c #290617",
"9  c #2B0716",
"0  c #2B0815",
"q  c #2A0816",
"w  c #2B0816",
"e  c #2C0816",
"r  c #2D0916",
"t  c #2C0817",
"y  c #2C0917",
"u  c #2D0A17",
"i  c #2E0B17",
"p  c #2E0C17",
"a  c #300D18",
"s  c #33111A",
"d  c #35141A",
"f  c #38171C",
"g  c #38181C",
"h  c #39181C",
"j  c #3B1B1D",
"k  c #3D1D1E",
"l  c #3E1E1E",
"z  c #41221F",
"x  c #411F21",
"c  c #402120",
"v  c #412120",
"b  c #422220",
"n  c #422320",
"m  c #432320",
"M  c #432420",
"N  c #452621",
"B  c #452721",
"V  c #462721",
"C  c #452722",
"Z  c #462722",
"A  c #462822",
"S  c #472822",
"D  c #472922",
"F  c #472923",
"G  c #472A23",
"H  c #482922",
"J  c #482A22",
"K  c #482A23",
"L  c #492B23",
"P  c #492C23",
"I  c #492A24",
"U  c #482B24",
"Y  c #4A2A24",
"T  c #4B2B24",
"R  c #4A2B25",
"E  c #4B2C24",
"W  c #4A2C25",
"Q  c #4C2C25",
"!  c #4F2D27",
"~  c #4E2E26",
"^  c #4F2E26",
"/  c #4F2F26",
"(  c #4F2F27",
")  c #502F27",
"_  c #502D28",
"`  c #502F28",
"'  c #512F28",
"]  c #512F29",
"[  c #523028",
"{  c #533029",
"}  c #53302A",
"|  c #54312A",
" . c #56332B",
".. c #57332C",
"X. c #58322D",
"o. c #58342C",
"O. c #5A342D",
"+. c #5A342E",
"@. c #5B352F",
"#. c #5C352F",
"$. c #5D372F",
"%. c #5E3730",
"&. c #613931",
"*. c #633A34",
"=. c #663B34",
"-. c #6A3F37",
";. c #6B3F38",
":. c #6D4039",
">. c #72433D",
",. c #73453E",
"<. c #77463F",
"1. c #7F4A43",
"2. c #844D47",
"3. c #854E48",
"4. c #87504A",
"5. c #8C524C",
"6. c #8D534D",
"7. c #935751",
"8. c #975953",
"9. c #995A54",
"0. c #995B55",
"q. c #9C5C56",
"w. c #9D5C56",
"e. c #9D5D57",
"r. c #9E5D57",
"t. c #9F5D57",
"y. c #A05F59",
"u. c #A15F59",
"i. c #A35F5A",
"p. c #A2605A",
"a. c #A5625C",
"s. c #A7625C",
"d. c #A9645D",
"f. c #AA645E",
"g. c #AD6661",
"h. c #AF6761",
"j. c #AF6762",
"k. c #AE6861",
"l. c #B06661",
"z. c #B06862",
"x. c #B16963",
"c. c #B36963",
"v. c #B46A63",
"b. c #B36964",
"n. c #B36A64",
"m. c #B46965",
"M. c #B46A64",
"N. c #B56B64",
"B. c #B46B65",
"V. c #B56B65",
"C. c #B66B65",
"Z. c #B76B65",
"A. c #B66A66",
"S. c #B66B66",
"D. c #B56C65",
"F. c #B66C65",
"G. c #B76C65",
"H. c #B56C66",
"J. c #B66C66",
"K. c #B76C66",
"L. c #B76D66",
"P. c #B86C66",
/* pixels */
"                                                                                                    ",
"                                                                                                    ",
"                                            J.J.V.V.V.                                              ",
"                                      P.J.V.J.J.J.J.Z.V.Z.V.V.P.                                    ",
"                                    J.J.V.v.f.e.p.a.g.n.V.J.J.J.J.                                  ",
"                                  J.V.u.#.R H H A H H ` X.O.<.J.J.J.                                ",
"                                V.V.l.W H A j 3 3 3 u u j A P ^ V.J.                                ",
"                              J.V.v.| H v 2 3 < < < 3 3 3 3 A H ) J.J.                              ",
"                            V.J.V.O.A a 3 @ @ , < , < , @ @ 3 H H 1.J.J.                            ",
"                            J.V.X.A 3 3 , , 3 < , < @ , < , 3 u U ^ J.J.                            ",
"                          Z.J.>.A e @ + @ 3 , @ , , @ 3 , < < , j H :.V.J.                          ",
"                          V.V.R v < , 3 @ , < @ @ < , @ @ @ , < @ H R V.V.                          ",
"                          J.5.A p , @ 3 , @ < , @ , , 3 < , @ < , d H | V.J.                        ",
"                        P.V.} A 2 < @ , < @ , @ 3 3 @ @ , @ @ , < 0 P W V.J.                        ",
"                        J.n.R z @ , 3 , @ , , 3 , @ 3 , @ , 3 , < , V A n.V.                        ",
"                        J.s.A s 3 @ , @ , 3 @ @ , 3 @ , 3 < 2 @ , 3 d ^ V.J.                        ",
"                        J.3.A 3 , , @ < 3 , @ @ 3 , @ 3 , , @ , , @ 3 ` J.J.                        ",
"                        J.*.H < @ 3 @ , @ , 3 , 3 @ , 3 @ 3 < @ < 2 3 R J.J.                        ",
"                        V.#.P < < 2 , @ @ 3 , 3 , , @ @ , 3 , @ , @ 3 v V.J.J.                      ",
"                        V...j , , @ , < , 3 @ @ @ 3 3 , @ @ , 3 @ , 3 z V.J.P.                      ",
"                      J.J. .p @ @ < @ 3 , @ 3 , @ , , 3 3 3 , @ , @ 3 g V.J.V.                      ",
"                      P.J.[ 0 @ @ , , 3 , 3 @ , 3 3 @ @ , @ , 3 @ , , 0 3.V.V.                      ",
"                      V.n.A 3 , , , @ @ @ @ 3 3 , @ 3 , @ , @ 3 2 < , , ` V.J.                      ",
"                      J.f.P 3 < @ 2 < , 3 , , @ , 3 @ , 3 3 @ , @ , < 2 ` V.P.                      ",
"                      J.4.H 3 < 2 @ @ , @ , , 3 @ 3 , @ 3 3 , @ @ < , , H V.V.                      ",
"                      J.<.W @ , < , 3 3 3 3 @ @ @ , 3 @ , @ , 3 , < @ < A 6.V.                      ",
"                      J.=.P @ 3 , @ , @ , @ 3 , 3 3 , , @ , @ 3 , @ < < A 7.V.                      ",
"                      V.#.P , @ , < < @ , 3 @ , , @ @ 3 3 3 @ , < @ , < V 8.V.                      ",
"                      J.$.H < @ @ , @ < , @ 3 3 3 @ @ , , , @ 3 , @ , 0 V r.J.                      ",
"                      J.&.A , , , @ @ , 3 @ , @ , , 3 3 @ 3 @ , @ , @ e A r.v.                      ",
"                      n.:.A @ < , < , @ 3 , @ , @ 3 , @ 3 @ 3 , @ , < 0 H r.x.                      ",
"                      n.:.z , < @ @ , < @ , 3 3 @ , 3 @ , , 3 @ , < , 0 A 9.J.                      ",
"                      n.^ P @ , @ < , , @ , < , @ , @ , @ , @ < , @ < e H 0.J.                      ",
"                      l.^ A 3 @ , 3 @ 2 , @ 2 @ 2 < < @ , @ , @ @ , , 0 H u.J.                      ",
"                      g.[ H , @ , @ , @ @ < , , , < , @ @ , , @ < < < 3 H a.J.                      ",
"                      f./ P , 3 @ , @ , , @ @ < @ @ , < , 2 @ , , < 3 3 W x.J.                      ",
"                      p./ U , @ , @ , @ , @ , @ 3 , , @ , @ , @ < , @ < R u.l.                      ",
"                        _ c , , @ , @ , @ , @ @ @ @ @ @ @ @ @ @ , < @ , f x                         ",
"                          e @ , , @ @ , , @ @ , @ , @ @ , , @ @ , , @ @ e                           ",
"                                    @ , , @ @ , , @ , @ @ @ @ , , @ , *                             ",
"                                      , @ @ , @ , @ , @ , @ , ,                                     ",
"                                          , @ @ @ , , @ , ,                                         ",
"                                            , @ , , , ,                                             ",
"                                              , @ # @                                               ",
"                                                  , @ +                                             ",
"                                                                                                    ",
"                                                                                                    ",
"                                                                                                    ",
"                                                                                                    ",
"                                                                                                    "
};
