/* XPM */
static char *_1d0b1b3e8064d4ca2faabc1247b0bc9G6zVPHaKj7pwgPQf[] = {
/* columns rows colors chars-per-pixel */
"50 50 79 1 ",
"  c #33211A",
". c #33221B",
"X c #35231B",
"o c #36231C",
"O c #34241C",
"+ c #36241C",
"@ c #37251E",
"# c #3A271F",
"$ c #3C271F",
"% c #3B281F",
"& c #3B2720",
"* c #3F2921",
"= c #412B21",
"- c #432D23",
"; c #442C23",
": c #442D23",
"> c #442D24",
", c #472F24",
"< c #462F25",
"1 c #482F25",
"2 c #482F26",
"3 c #473024",
"4 c #473025",
"5 c #4B3227",
"6 c #4C3227",
"7 c #4D3327",
"8 c #4B3228",
"9 c #4B3328",
"0 c #4C3228",
"q c #4D3429",
"w c #49362F",
"e c #503429",
"r c #54372B",
"t c #50372C",
"y c #54372D",
"u c #55392C",
"i c #57392E",
"p c #593A2E",
"a c #5A3C2F",
"s c #513C34",
"d c #583B30",
"f c #5A3B30",
"g c #5C3B31",
"h c #5C3D32",
"j c #5F3E32",
"k c #603F33",
"l c #613F33",
"z c #58423B",
"x c #58443B",
"c c #634034",
"v c #664236",
"b c #664336",
"n c #684336",
"m c #684437",
"M c #684438",
"N c #6B4639",
"B c #6F473B",
"V c #64493F",
"C c #6F483B",
"Z c #71493C",
"A c #744B3D",
"S c #774D3F",
"D c #784D3E",
"F c #684F46",
"G c #764D40",
"H c #744E42",
"J c #69534B",
"K c #6C554D",
"L c #725044",
"P c #795043",
"I c #76554B",
"U c #75584F",
"Y c #735B53",
"T c #745A51",
"R c #775E56",
"E c #795C53",
"W c #785F56",
"Q c #776059",
"! c #786159",
/* pixels */
"55555555555555555555555555665555555555555555555555",
"55555555555555555555555551155555565555555555555555",
"5555555555555555555555<<-<<55555665059555555555555",
"55555555555555555555661<<;<555550pNMe0555555555555",
"555555555555555555555511<;<555550ZWEGp655555555555",
"555555555555555555555<<<<559555<O x!TDv55555555555",
"555555555559;6551659<<1<5<-<-<*  otBB5055955555555",
"5555555555533;5;<;3-;<;3;;3;<<  =lvj531;;3<5555555",
"555555555555;;3;;<;;<<<<3-3-<- #-pee33<<<1<<;<-<55",
"55555555555555566665656559;;<<$<3;<<<<-<<<--3;<555",
"55555555555jvNr5665555555559513<;<5<<<<;<555955555",
"5555555556NIRPSp555555555553<<<5555599955555555555",
"5555555556jRQHDBe555555555<<5555555555555555555555",
"5555555555 wUznDq555555555555555555555555555555555",
"555555555< Olaul55555555555;<955555555555555555555",
"5555555555  o66655555555555<;155555555555555555555",
"5555555555=X #5555559<61<<<<5555555555655655555555",
"55555550500=XX56555;<3<<115555555555550flf65555555",
"555555<<;<-<;33-3;-5555506555555555555nGRGn9555555",
"5555;;-<;<<-<<5655555555005555555555; #<RRS0555555",
"53<<<<;3<155<15655955555555511511916-&$X9YF1165555",
"53<<;56565551<<;<33;3;;;;<;-;<;<<<<<535*.*99555555",
"55<0555555555555<<1<<<<5555555561<36551;.*<<<<5555",
"55605555555555;<<155950655555555-<<;<-1<=<<<;<5555",
"555555555555<<1656565550555555555555<<<1;<1<155555",
"5555555555-<51513<5<51<0ijcv9<;<<<-<<1156555555555",
"55555555555;<<1<39;5<<yNmKJBj<1<<<3;;<<15555555555",
"5555555555555555595555fgzJxc6<1<<3-;15<<3555555555",
"555559511155<593<<<<1<1<*O.<111<;335<5<<9555555555",
"555551<<1<;3<<;;;511<555< . =<15550955555555555555",
"55555511<1<51139<55;<<<-<<..  55555555555555555555",
"555555555555555555669-<<-<<-==<<;55555555555555555",
"555555555555555555555;<<-<;<;55<<-<<16555555555555",
"55555555555555555555556<<-;1<<-<<<<155555555555555",
"555555555559555555555559555<<1<-556655555555555555",
"5555555555te00555555553<<<<51<<<555555555555555555",
"55555555eT!UPn009551<<1<<133<955555555555555555555",
"55555555vW!FAAe61<<1553<;5555555555555555555555555",
"55555555;##onle<<<<<;3<665555555555555555555555555",
"5555555<  *0pe;13555555555555555555555555555555555",
"5555<;<;#=<6p15<555555555555555555555556ilcdq99955",
"5<3;<<55<<;<y1<<555555555555555555555559vSH!Y95555",
"51<<<1<1<<11<<<;5599<<<<3<;5<555555555000ZjsO55555",
"55555551105<-<-3;<;3<55<<9933;<<<<1<1<<pne# X55555",
"555555555555555533-3;<555555665551651<10-.  o65555",
"5555555555555555550565;<<<<<11<1<<1;<<<<.. X<<3;55",
"5555555555555555555565515555<,51515<;<-<3==;<<3-<5",
"55555555555555555555555555555555555519993351159055",
"55555555555555555555555555555555555555555555555555",
"55555555555555555555555555555555555555555555555555"
};
