/* XPM */
static char *_66858dbf95740009a00cda655a41157Vwta68wICOvUHcIv[] = {
/* columns rows colors chars-per-pixel */
"50 50 143 2 ",
"   c None",
".  c #211727",
"X  c #241728",
"o  c #251728",
"O  c #24172B",
"+  c #25172B",
"@  c #26162B",
"#  c #211828",
"$  c #221828",
"%  c #231829",
"&  c #231929",
"*  c #231A29",
"=  c #231B29",
"-  c #21182A",
";  c #23182A",
":  c #23192A",
">  c #23182B",
",  c #23192B",
"<  c #231A2A",
"1  c #231A2B",
"2  c #231B2B",
"3  c #241928",
"4  c #241829",
"5  c #251829",
"6  c #241929",
"7  c #251929",
"8  c #251A28",
"9  c #241A29",
"0  c #251A29",
"q  c #241B29",
"w  c #261B29",
"e  c #24182A",
"r  c #25182A",
"t  c #24192A",
"y  c #25192A",
"u  c #24182B",
"i  c #24192B",
"p  c #25192B",
"a  c #26192B",
"s  c #241A2A",
"d  c #251A2A",
"f  c #241A2B",
"g  c #251A2B",
"h  c #251C2B",
"j  c #261C2B",
"k  c #22182C",
"l  c #221A2C",
"z  c #221A2D",
"x  c #231A2D",
"c  c #25192C",
"v  c #24192D",
"b  c #251B2C",
"n  c #261A2C",
"m  c #261B2C",
"M  c #241D2D",
"N  c #261D2C",
"B  c #271C2D",
"V  c #271D2D",
"C  c #281E2D",
"Z  c #281E2E",
"A  c #291E2F",
"S  c #2E1C2C",
"D  c #2B2031",
"F  c #2C2132",
"G  c #2D2233",
"H  c #2D2333",
"J  c #2E2434",
"K  c #312737",
"L  c #3C2531",
"P  c #332838",
"I  c #342A3A",
"U  c #362C3B",
"Y  c #382E3D",
"T  c #39303E",
"R  c #4D2A37",
"E  c #3B3141",
"W  c #3C3241",
"Q  c #3D3342",
"!  c #645D69",
"~  c #675F6B",
"^  c #6A636F",
"/  c #FE5A63",
"(  c #FF5A63",
")  c #FE5B63",
"_  c #FF5B63",
"`  c #FE5C63",
"'  c #FF5C63",
"]  c #FF5E63",
"[  c #FE5E64",
"{  c #FE766B",
"}  c #FF766B",
"|  c #FE776C",
" . c #FF776C",
".. c #FE7F6A",
"X. c #FE786D",
"o. c #7C7680",
"O. c #1ABEB5",
"+. c #1BBEB6",
"@. c #1ABFB6",
"#. c #1BBFB7",
"$. c #1DBEB8",
"%. c #1CBFB8",
"&. c #1FBFB9",
"*. c #1FC0BB",
"=. c #3DC5CF",
"-. c #3DC5D0",
";. c #3EC5D0",
":. c #3FC5D0",
">. c #3FC5D1",
",. c #3DC6D0",
"<. c #3DC6D1",
"1. c #3EC6D0",
"2. c #3EC6D1",
"3. c #47C6DB",
"4. c #8C868F",
"5. c #928C95",
"6. c #99949C",
"7. c #B7B3B9",
"8. c #B9B5BB",
"9. c #BEBBBF",
"0. c #C2BFC4",
"q. c #C3C0C5",
"w. c #CCCACE",
"e. c #D4D2D5",
"r. c #D6D4D7",
"t. c #DBD9DC",
"y. c #D7ECD5",
"u. c #D9EBD6",
"i. c #E1DFE2",
"p. c #EFDAF1",
"a. c #EDDCF0",
"s. c #EFEEEF",
"d. c #F7F7F8",
"f. c #F8F8F9",
"g. c #F9F9F9",
"h. c gray98",
"j. c #FBFAFB",
"k. c #FBFBFB",
"l. c #FCFBFC",
"z. c gray99",
"x. c #FDFDFD",
"c. c #FEFEFE",
"v. c white",
/* pixels */
"                          2.                                                                        ",
"                  ;.2.  ;.2.;.  ;.;.                                                                ",
"                  ;.;.;.;.O.a.3.;.;.                                                                ",
"                    ;.;.*.=.O.a.;.                                                }                 ",
"                      ;.;.;.=.=.                                          X.X.  } | |   | |         ",
"                    *.;.;.=.=.=.*.                                        X.} } | ) u...| |         ",
"                  $.O.*.O.;.O.*.O.O.                                        } X.) | ) y.|           ",
"                  $.$.N O.O.O.  *.O.z t         c                             X.| | | |             ",
"                  t N     *.          t         >       t t                 [ X.| | | | _           ",
"                t t t                 t t       t       t                 ` ' ' _ | _ _ ' _         ",
"                t t           t         t   t t t >     t         > t     ` `   _ _ _ R _ '         ",
"              t t t           t >     > t t t t t t t t t       t t               / L t S           ",
"              t t       t >     t q t t t t t o w t t t t t q t t t                   t t           ",
"              t t       > t t   t t t t t t t t t t q t t t t t c       > t           t t           ",
"              t t         t t > t t t > @ t t t t t t t t c t t t   c t t             t t           ",
"              t t   c >     t t t t t > t t t t t t t t t t t t t t t t               t t           ",
"              t t   > t t t t t t > t t t t t t t t t t t t t t t t t                 t t           ",
"              t t     t t t t t = t t t t t t t t t t t t t t t t t q     t t a       t t           ",
"              t t t     t t t t * t t t t t t t t t t t t t t t t t t t t t         c t             ",
"              t t t     t t t t > t t t t t t t t t t t t t t t @ t t t t           t t             ",
"                t t t > t t t q t t t t t t t t t t t t t t t t t t t t N         t t t             ",
"                  t t q t t t t t t t P Q J t c t t t K Q J c t t t t t c       t t t               ",
"                  t t t > t o * t q 8.v.v.v.^ N t t U h.v.k.q.A t t t t t t t t t t                 ",
"            t > t q t t o > > * t 4.v.v.h.h.v.Q t t w.v.v.h.h.9.t t t t t t t t t                   ",
"                      t t t t > q v.v.v.A F v.d.A A h.v.K t h.l.D > > t t t t                       ",
"                        t t t c N z.v.z.A F v.l.H H z.v.U D v.h.q t o = t                           ",
"                      t t t t t t ~ v.z.h.h.v.^ t F v.v.v.v.h.e.t t t t t t                         ",
"                  t t c t t t t t t 5.v.v.v.r.t t t t.v.v.v.h.T t t t     q t                       ",
"              t t c       q t t t > t ! s.5.q * t t D q.s.7.K t > t t                               ",
"                            o t t t * t t t * > t t t > > > o t @ z > t                             ",
"                              t t t t q o > t * t t > o * w t t t     c t                           ",
"                            t t t t t t * * * * * t > * @ t > t t t   t c                           ",
"                          q t t   t t t t t t t t t t t t t t   t t     q                           ",
"                        t t t       t t t t t t t t t t t t       t t                               ",
"                        t >         t c t t t t t t t   t t         t                               ",
"                                  t t   t t   t t   t   t t                                         ",
"                                t t     t t   q t   t   t t                                         ",
"                                t c     t t   t q   t   t t                                         ",
"                                        t t   t     c   t t                                         ",
"                                        t t             t t                                         ",
"                                        t t             t t                                         ",
"                                        t t             t t                                         ",
"                                        t t             t t                                         ",
"                                        t t             t t                                         ",
"                                        t t             t t                                         ",
"                                        t t             t t                                         ",
"                                        t t             t t                                         ",
"                                  t t t t t             t t t t t                                   ",
"                                  t t t t t             t t t t t                                   ",
"                                                                                                    "
};
