/* XPM */
static char *_b0584bbea5b46d6995587d7fe28d168Myp71MsBYf8jSzCI[] = {
/* columns rows colors chars-per-pixel */
"50 50 40 1 ",
"  c #16030B",
". c #18040D",
"X c #1A050E",
"o c #1B070F",
"O c #1C070F",
"+ c #1C0710",
"@ c #1C0810",
"# c #1D0810",
"$ c #1E0912",
"% c #1F0A13",
"& c #200B13",
"* c #210C14",
"= c #210C15",
"- c #240F18",
"; c #261018",
": c #27111A",
"> c #28121B",
", c #29121C",
"< c #29131C",
"1 c #2B151E",
"2 c #2C151E",
"3 c #2D1620",
"4 c #2E1721",
"5 c #2F1821",
"6 c #2F1822",
"7 c #301822",
"8 c #301923",
"9 c #321B24",
"0 c #321B25",
"q c #331C26",
"w c #341D27",
"e c #351E27",
"r c #371F28",
"t c #381F2A",
"y c #382029",
"u c #38202A",
"i c #3A222B",
"p c #3A222C",
"a c #3B232C",
"s c #3B232D",
/* pixels */
"ppppi=tppppppr%tpppppp0+ruppppppi$eppppppppi+rpppp",
"ppppi$ippppppu@uppppppr+ppppppppp@5ippppppiu+rppp+",
"ppiip$rppppppu+tppppppr+uppppppppX4pppppppiuXrippp",
"pppii+rpppppprXrppppppr.upppppppp$5pppppppiuXrippp",
"rrrreXrppppppr.uppppppr+upppppppp$ppppppppprXrrrrr",
"%$$+O+rppppppr+uppppppr%upppppppp%tppppppppr++$+$$",
"piptr+:=%%%-0r.rppppppp0ppppppppr.ippppppppr.ruppu",
"ppppr$e441,%4r+uppppppppppppppppiXepppppppp5.ppppp",
"ppppp+rppppppr+uppppppp:ppppppppiX0pppppppp2Xppppp",
"ppppp4ippppppr.tppppppp%ppppppppiX0ippppppp>+ppppp",
"pppppppppppppr+ippppppi$upppppppiX4pppppppp=$ppppp",
"pppppipppppppr.tppppppi:wuuuuiuuiX4pppppppp$-ppppp",
"ppppp+rpppppprXrppppppeX$+@$@@$@=O1pppppppp:4ppppp",
"ppppp+ripppppr+tppppppuXriuuuuw0<O:pppppppp2pppppp",
"ppppi+rippppprXtppppipuXrpppppppp+:pppppppp=pppppp",
"ppppi+pppppppr.rppppiiuXupppppppp+-pppppppi-pppppp",
"ppppr$upppppiu.uppppiaiXyippppppp$=aapppppp1pppppa",
"pppii$uippppiu.uppppiiuXuippppppi$*apppppppppppppa",
"piiiu$uipppppuX1:$$=19uXuiiippppp=$ippppppprpppppp",
"ppiiiXuipppppr$31551@@uXyiiippppi=$ppiiiprrXpppppp",
"ppppu@uippppppppiipppiuXupppppppp=$$+$$$+$$+rppppp",
"ppppi$uippppppppppppppu.upppppppi=$rri05450Xrppppp",
"ppiii$uppppppuwippppppu.uippppppp:+ppppppprXrppppp",
"ppppp1upppppiu.uppppppuXuippppppp:+pppppppu+tppppp",
"ppppp1iipppppuXuppppiiuXuippppppp<+ppppppprXippppp",
"ppppp2upppppuu.uppppiiuouippppppppppppppppiXeppppp",
"ppppi>yipppppu.uppppiiuXuiipppppppppppppppi.0ipppp",
"ppppp1eipppapu.upppppiuouiipppppp5XtpppppppX4ipppp",
"pppri<+$@%%<56.uppppppuXuupppappp0XipppppppX5ieiui",
"+++++$041:;%=;XuppppppuX$$$$$$:1r0XtpppppppX=$$Xo$",
"0rrpi=pippppauouppppiiuXuw3,11$$+<.ippppppp$=eriu0",
"ppiii$rpppppauXuppppiiuXuiiiupiaieXippppppi$=ppppi",
"ppppp$rppppppr+tppppppuXuiiipppppuXuppppppa$%ppppp",
"ppppp+rpppppprXippppppuXuipppppppuXuppppppa=$apppp",
"ppppp$rpppppprXrppppppuXupppppppuuXuppppppp55ppapp",
"ppppt+ppppppprXtppppppuXupppppppiuXupppppppppppppp",
"ppppt+rppppppr.uppppiiuXuippppppau.uiippppiippppap",
"ppppt+ipppppprXuppppiiuXuippppppiu.uiipppppw$pppip",
"pppppOpppppppu.uppppipu.uiipppppau.uippppppeXppppi",
"ppppttpppppppuX00rrruiuXuiipppppuuouippppppeXupppp",
"ppppiippppppprX-$$@@$$u+upppppppiuXupppppppr+upppp",
"ppppu$upppppprXruiiuuuppupppppppiuXuppppppprXrpppp",
"ppppu@upppppuuXuppppipppiippppppiuX04rruirir+rpppp",
"ppppu+uppppppuXuppppppiippppppppppX,$++$+$+$Xrpppp",
"ppppuouppppppr.upppppiuXuippppppppX5piruurrrXrpppp",
"ppppu@uppppppiXupppppiuXuipppppppuX5ppppppppX0pppp",
"ppppuXupppiiiu.uppppppuXrpppppppppX1ppppppppX4pppp",
"ppppiXupppiiiu.uppppppu.rpppppppppX1ppppppppX3pppp",
"ppppuXiippppprXuipppppu.rippppppppX:apppppppX:pppp",
"ppppuXupppppprXuppppppuXuipppppppp$:ipppppppo:pipp"
};
